<?xml version="1.0" encoding="UTF-8" standalone="no"?>
<svg width="84px" height="36px" viewBox="0 0 84 36" version="1.1" xmlns="http://www.w3.org/2000/svg" xmlns:xlink="http://www.w3.org/1999/xlink">
    <!-- Generator: Sketch 39.1 (31720) - http://www.bohemiancoding.com/sketch -->
    <title>Events_tab</title>
    <desc>Created with Sketch.</desc>
    <defs></defs>
    <g id="Page-1" stroke="none" stroke-width="1" fill="none" fill-rule="evenodd">
        <g id="Events_tab">
            <g id="Page-1">
                <polygon id="Fill-1" fill="#4BACE1" points="0 23.7834 9.93 36.0004 9.93 23.7834"></polygon>
                <polygon id="Fill-2" fill="#00395D" points="0 23.783 83.571 23.783 83.571 0 0 0"></polygon>
            </g>
            <path d="M10.20446,12.2319919 L14.184404,12.2319919 L14.184404,11.2191319 L10.20446,11.2191319 L10.20446,8.69293985 L14.43464,8.69293985 L14.43464,7.65624785 L9.024776,7.65624785 L9.024776,16.0927759 L14.61338,16.0927759 L14.61338,15.0441679 L10.20446,15.0441679 L10.20446,12.2319919 Z M16.448444,7.65624785 L15.137684,7.65624785 L18.4265,16.0927759 L19.522772,16.0927759 L22.83542,7.65624785 L21.560408,7.65624785 L19.0223,14.5675279 L18.986552,14.5675279 L16.448444,7.65624785 Z M25.016048,12.2319919 L28.995992,12.2319919 L28.995992,11.2191319 L25.016048,11.2191319 L25.016048,8.69293985 L29.246228,8.69293985 L29.246228,7.65624785 L23.836364,7.65624785 L23.836364,16.0927759 L29.424968,16.0927759 L29.424968,15.0441679 L25.016048,15.0441679 L25.016048,12.2319919 Z M32.535044,7.65624785 L30.99788,7.65624785 L30.99788,16.0927759 L32.177564,16.0927759 L32.177564,9.20532785 L32.201396,9.20532785 L36.65798,16.0927759 L38.14748,16.0927759 L38.14748,7.65624785 L36.967796,7.65624785 L36.967796,14.4007039 L36.943964,14.4007039 L32.535044,7.65624785 Z M43.1522,8.69293985 L45.857132,8.69293985 L45.857132,7.65624785 L39.267584,7.65624785 L39.267584,8.69293985 L41.972516,8.69293985 L41.972516,16.0927759 L43.1522,16.0927759 L43.1522,8.69293985 Z M52.005788,8.40695585 C51.481484,7.82307185 50.563952,7.44175985 49.58684,7.44175985 C48.192668,7.44175985 46.691252,8.16863585 46.691252,9.84879185 C46.691252,11.3978719 47.811356,11.8864279 48.883796,12.2200759 C49.956236,12.5537239 50.885684,12.8277919 50.885684,13.8525679 C50.885684,14.8535119 49.980068,15.2944039 49.193612,15.2944039 C48.419072,15.2944039 47.704112,14.8892599 47.310884,14.3053759 L46.393352,15.0799159 C47.036816,15.8902039 48.109256,16.3072639 49.16978,16.3072639 C50.671196,16.3072639 52.0892,15.4969759 52.0892,13.7453239 C52.0892,12.0651679 50.742692,11.6361919 49.610672,11.2787119 C48.657392,10.9688959 47.882852,10.7186599 47.882852,9.80112785 C47.882852,8.84784785 48.764636,8.43078785 49.52726,8.43078785 C50.230304,8.43078785 50.83802,8.75251985 51.171668,9.21724385 L52.005788,8.40695585 Z" id="EVENTS" fill="#FEFEFE"></path>
        </g>
    </g>
</svg>