<?xml version="1.0" encoding="utf-8"?>
<svg width="48px" height="48px" viewBox="3.116 -4.342 48 48" preserveAspectRatio="none" xmlns="http://www.w3.org/2000/svg" xmlns:bx="https://boxy-svg.com">
  <desc>Created with Sketch.</desc>
  <path id="Stroke-1" d="M 8.28 35.776 L 31.172 35.776 L 46.773 2.424 L 23.881 2.424 L 8.28 35.776 Z" style="stroke: rgb(0, 150, 214); stroke-width: 1.795; fill: none; fill-rule: evenodd;" bx:origin="0.5 0.5"/>
  <path id="Fill-2" style="fill: rgb(0, 150, 214); stroke: rgb(255, 255, 255); stroke-width: 1.5; fill-rule: evenodd;" d="M 40.48 19.097 C 40.041 17.372 36.853 16.642 34.933 16.633 C 34.37 16.63 34.008 16.671 33.813 16.734 C 33.795 16.588 33.782 16.345 33.782 15.945 C 33.782 12.309 36.575 10.032 39.01 8.455 L 39.224 8.316 L 39.356 7.949 C 39.481 7.355 38.979 6.447 38.683 6.092 C 38.633 6.033 37.463 4.65 36.608 5.076 C 29.722 8.987 26.246 14.33 26.246 20.973 C 26.246 26.242 29.594 30.799 35.01 30.536 L 40.567 19.139 M 24.756 22.825 C 24.756 18.731 22.009 16.589 19.296 16.589 C 18.942 16.589 18.678 16.671 18.483 16.734 C 18.465 16.588 18.451 16.345 18.451 15.945 C 18.451 12.309 21.246 10.032 23.679 8.455 L 23.894 8.316 L 24.025 7.949 C 24.15 7.355 23.648 6.447 23.352 6.092 C 23.303 6.033 22.133 4.65 21.277 5.076 C 14.392 8.987 10.916 14.33 10.916 20.973 C 10.916 26.242 13.871 29.922 18.102 29.922 C 22.212 29.922 24.756 26.238 24.756 22.825" bx:origin="0.5 0.5"/>
</svg>